<svg width="22" height="22" viewBox="0 0 22 22" fill="none" xmlns="http://www.w3.org/2000/svg">
<path d="M19.5003 2.66995C20.0855 2.87676 20.5922 3.25992 20.9506 3.76666C21.3089 4.2734 21.5014 4.87879 21.5014 5.49945C21.5014 6.12011 21.3089 6.7255 20.9506 7.23224C20.5922 7.73898 20.0855 8.12214 19.5003 8.32895V20.4995C19.5003 20.7647 19.395 21.019 19.2074 21.2066C19.0199 21.3941 18.7656 21.4995 18.5003 21.4995C18.2351 21.4995 17.9808 21.3941 17.7932 21.2066C17.6057 21.019 17.5003 20.7647 17.5003 20.4995V8.32895C16.9152 8.12214 16.4085 7.73898 16.0501 7.23224C15.6917 6.7255 15.4993 6.12011 15.4993 5.49945C15.4993 4.87879 15.6917 4.2734 16.0501 3.76666C16.4085 3.25992 16.9152 2.87676 17.5003 2.66995V1.49945C17.5003 1.23423 17.6057 0.979879 17.7932 0.792343C17.9808 0.604807 18.2351 0.499451 18.5003 0.499451C18.7656 0.499451 19.0199 0.604807 19.2074 0.792343C19.395 0.979879 19.5003 1.23423 19.5003 1.49945V2.66995ZM18.5003 6.49945C18.7656 6.49945 19.0199 6.39409 19.2074 6.20656C19.395 6.01902 19.5003 5.76467 19.5003 5.49945C19.5003 5.23423 19.395 4.97988 19.2074 4.79234C19.0199 4.60481 18.7656 4.49945 18.5003 4.49945C18.2351 4.49945 17.9808 4.60481 17.7932 4.79234C17.6057 4.97988 17.5003 5.23423 17.5003 5.49945C17.5003 5.76467 17.6057 6.01902 17.7932 6.20656C17.9808 6.39409 18.2351 6.49945 18.5003 6.49945ZM4.50034 8.16995C5.08553 8.37676 5.5922 8.75992 5.95057 9.26666C6.30894 9.7734 6.50137 10.3788 6.50137 10.9995C6.50137 11.6201 6.30894 12.2255 5.95057 12.7322C5.5922 13.239 5.08553 13.6221 4.50034 13.829L4.50034 20.4995C4.50034 20.7647 4.39498 21.019 4.20745 21.2066C4.01991 21.3941 3.76556 21.4995 3.50034 21.4995C3.23512 21.4995 2.98077 21.3941 2.79323 21.2066C2.6057 21.019 2.50034 20.7647 2.50034 20.4995L2.50034 13.829C1.91498 13.6222 1.40813 13.2391 1.04962 12.7323C0.691113 12.2255 0.498596 11.62 0.498596 10.9992C0.498596 10.3784 0.691113 9.77291 1.04962 9.26611C1.40813 8.75931 1.91498 8.37616 2.50034 8.16945L2.50034 1.49945C2.50034 1.23423 2.6057 0.979879 2.79323 0.792343C2.98077 0.604807 3.23512 0.499451 3.50034 0.499451C3.76556 0.499451 4.01991 0.604807 4.20745 0.792343C4.39498 0.979879 4.50034 1.23423 4.50034 1.49945V8.16995ZM3.50034 11.9995C3.76556 11.9995 4.01991 11.8941 4.20745 11.7066C4.39498 11.519 4.50034 11.2647 4.50034 10.9995C4.50034 10.7342 4.39498 10.4799 4.20745 10.2923C4.01991 10.1048 3.76556 9.99945 3.50034 9.99945C3.23512 9.99945 2.98077 10.1048 2.79323 10.2923C2.6057 10.4799 2.50034 10.7342 2.50034 10.9995C2.50034 11.2647 2.6057 11.519 2.79323 11.7066C2.98077 11.8941 3.23512 11.9995 3.50034 11.9995ZM12.0003 1.49945L12.0003 13.67C12.5857 13.8767 13.0926 14.2598 13.4511 14.7666C13.8096 15.2734 14.0021 15.8789 14.0021 16.4997C14.0021 17.1205 13.8096 17.726 13.4511 18.2328C13.0926 18.7396 12.5857 19.1227 12.0003 19.3295V20.4995C12.0003 20.7647 11.895 21.019 11.7074 21.2066C11.5199 21.3941 11.2656 21.4995 11.0003 21.4995C10.7351 21.4995 10.4808 21.3941 10.2932 21.2066C10.1057 21.019 10.0003 20.7647 10.0003 20.4995V19.329C9.41515 19.1221 8.90848 18.739 8.55011 18.2322C8.19174 17.7255 7.9993 17.1201 7.9993 16.4995C7.9993 15.8788 8.19174 15.2734 8.55011 14.7667C8.90848 14.2599 9.41515 13.8768 10.0003 13.67L10.0003 1.49945C10.0003 1.23423 10.1057 0.979879 10.2932 0.792343C10.4808 0.604807 10.7351 0.499451 11.0003 0.499451C11.2656 0.499451 11.5199 0.604807 11.7074 0.792343C11.895 0.979879 12.0003 1.23423 12.0003 1.49945ZM11.0003 17.4995C11.2656 17.4995 11.5199 17.3941 11.7074 17.2066C11.895 17.019 12.0003 16.7647 12.0003 16.4995C12.0003 16.2342 11.895 15.9799 11.7074 15.7923C11.5199 15.6048 11.2656 15.4995 11.0003 15.4995C10.7351 15.4995 10.4808 15.6048 10.2932 15.7923C10.1057 15.9799 10.0003 16.2342 10.0003 16.4995C10.0003 16.7647 10.1057 17.019 10.2932 17.2066C10.4808 17.3941 10.7351 17.4995 11.0003 17.4995Z" fill="white"/>
</svg>
