<svg width="350" height="180" viewBox="0 0 350 180" fill="none" xmlns="http://www.w3.org/2000/svg">
<path fill-rule="evenodd" clip-rule="evenodd" d="M157.252 0.460538C133.765 3.29364 116.14 8.45126 96.7897 18.154C43.6496 44.799 7.37814 96.9609 0.921796 156.02C-0.876831 172.468 -0.0823487 179.23 3.6492 179.23C5.35945 179.23 25.5464 175.718 26.8598 175.192C27.5746 174.907 23.9349 173.975 18.7721 173.123C13.6092 172.271 9.14645 171.336 8.85534 171.045C7.47865 169.668 12.0575 136.877 13.9549 134.528C14.5051 133.845 16.9812 134.004 22.7401 135.091C27.1501 135.923 30.8617 136.508 30.9864 136.39C31.1121 136.272 27.6032 134.838 23.1889 133.203C15.7769 130.456 15.1869 130.066 15.4685 128.088C16.2725 122.449 28.752 93.4572 30.3756 93.4572C30.7057 93.4572 33.9478 94.8122 37.5814 96.4679C41.215 98.1236 44.1876 99.2958 44.1876 99.074C44.1876 98.8513 41.4585 96.8543 38.1229 94.6363C34.7873 92.4184 32.0582 90.3442 32.0582 90.0272C32.0582 87.525 53.0768 60.5343 55.0253 60.5343C55.5919 60.5343 59.5262 63.0269 63.7672 66.074C68.009 69.1211 71.6098 71.4925 71.7692 71.3426C71.9295 71.1936 69.4923 67.5738 66.3542 63.2981C63.2162 59.0234 60.649 55.1549 60.649 54.7018C60.649 52.8001 87.7472 31.9434 90.2181 31.9434C90.5759 31.9434 92.8901 34.8675 95.361 38.4414C97.8319 42.0152 99.9737 44.9393 100.122 44.9393C100.27 44.9393 98.8231 41.5942 96.9066 37.5048C94.991 33.4163 93.5537 29.9473 93.714 29.7957C94.4383 29.1104 108.387 22.3707 113.066 20.4456C120.757 17.2798 130.001 14.367 130.565 14.9319C130.837 15.203 132.185 18.4598 133.562 22.168C135.964 28.6416 136.039 28.7378 135.441 24.5791C135.098 22.1966 134.797 18.6998 134.771 16.8093L134.725 13.3706L139.491 12.2824C147.521 10.4492 163.51 8.44086 167.861 8.71984L171.98 8.98409L173.351 18.2969C174.105 23.4182 174.933 27.8203 175.191 28.0785C175.449 28.3367 176.375 23.9952 177.247 18.4312L178.834 8.31351L187.12 8.85673C196.297 9.45801 214.892 12.5727 216.023 13.6973C216.422 14.0932 216.137 17.6532 215.391 21.6091C214.645 25.5651 214.155 28.9215 214.302 29.0688C214.449 29.216 215.666 26.1854 217.007 22.3352C218.347 18.4841 219.902 15.158 220.462 14.9431C223.472 13.7874 256.453 28.14 256.453 30.6049C256.453 31.3647 255.064 34.7462 253.366 38.1182C251.667 41.4911 250.4 44.3727 250.55 44.5226C250.7 44.6716 252.771 41.9156 255.154 38.3972C257.536 34.8788 259.903 31.9868 260.415 31.9712C262.356 31.9131 279.234 44.28 286.58 51.1427L290.281 54.6004L284.63 62.7046C281.522 67.1622 278.98 71.0142 278.98 71.2637C278.98 71.5132 282.743 69.0206 287.344 65.724C291.944 62.4283 296.032 59.9305 296.427 60.1757C299.257 61.924 318.834 87.8967 318.834 89.9024C318.834 90.3824 317.079 91.9817 314.935 93.4572C312.79 94.9327 311.036 96.3223 311.036 96.5459C311.036 96.7694 313.056 95.9281 315.527 94.6762C319.865 92.4773 320.059 92.4556 321.262 94.0117C324.78 98.5663 336.161 125.846 336.161 129.723C336.161 130.189 333.017 131.617 329.176 132.896C322.198 135.22 320.172 136.546 325.813 135.097C327.454 134.675 330.616 134.082 332.84 133.778C337.461 133.147 337.055 132.559 339.084 142.841C340.904 152.068 342.428 165.27 342.085 168.833L341.793 171.866L333.562 173.299C329.035 174.087 325.137 174.808 324.898 174.901C324.66 174.993 329.339 175.95 335.295 177.027C350.169 179.716 350.031 179.791 349.996 169.071C349.926 147.462 342.581 118.038 332.184 97.7103C304.278 43.1545 256.65 8.86886 198.032 1.13719C189.53 0.0160812 164.394 -0.401521 157.252 0.460538Z" fill="#E1DBFF"/>
<path d="M340.999 174.871C340.887 145.959 333.112 117.594 318.465 92.6675C303.817 67.7408 282.822 47.1437 257.62 32.9761L250.207 46.1629C273.078 59.0197 292.13 77.711 305.422 100.331C318.714 122.952 325.77 148.692 325.871 174.929L340.999 174.871Z" fill="url(#paint0_linear_1_2)"/>
<path d="M258 170C258 147.987 249.255 126.876 233.69 111.31C218.124 95.7446 197.013 87 175 87C152.987 87 131.876 95.7446 116.31 111.31C100.745 126.876 92 147.987 92 170L100.433 170C100.433 150.224 108.289 131.257 122.273 117.273C136.257 103.289 155.224 95.4329 175 95.4329C194.776 95.4329 213.743 103.289 227.727 117.273C241.711 131.257 249.567 150.224 249.567 170H258Z" fill="url(#paint1_linear_1_2)"/>
<path d="M256.991 32.6243C232.182 18.8216 204.207 11.7166 175.818 12.0087C147.43 12.3007 119.606 19.9797 95.0868 34.2898C70.5672 48.6 50.1963 69.0481 35.979 93.6216C21.7618 118.195 14.1881 146.047 14.0035 174.437L29.1307 174.535C29.2983 148.772 36.1712 123.497 49.0731 101.197C61.9749 78.8974 80.461 60.3412 102.712 47.3551C124.963 34.3689 150.212 27.4005 175.974 27.1354C201.736 26.8704 227.123 33.318 249.636 45.8436L256.991 32.6243Z" fill="url(#paint2_linear_1_2)"/>
<path d="M247.5 50.5L254.5 28.5L262.5 32L247.5 50.5Z" fill="#E1DBFF"/>
<path d="M103.16 49.8001L88.9513 31.6036L96.3562 26.9756L103.16 49.8001Z" fill="#E1DBFF"/>
<defs>
<linearGradient id="paint0_linear_1_2" x1="237.5" y1="33.5" x2="333" y2="176" gradientUnits="userSpaceOnUse">
<stop stop-color="#FF0000" stop-opacity="0"/>
<stop offset="1" stop-color="#FF0000"/>
</linearGradient>
<linearGradient id="paint1_linear_1_2" x1="175" y1="87" x2="175" y2="170" gradientUnits="userSpaceOnUse">
<stop stop-color="#6E5AD3"/>
<stop offset="1" stop-color="#6D59D3" stop-opacity="0"/>
</linearGradient>
<linearGradient id="paint2_linear_1_2" x1="17.5" y1="172.5" x2="248.5" y2="35" gradientUnits="userSpaceOnUse">
<stop stop-color="#33FF00" stop-opacity="0"/>
<stop offset="0.388245" stop-color="#86FB00" stop-opacity="0.83"/>
<stop offset="0.52583" stop-color="#FDF501"/>
<stop offset="1" stop-color="#FFF500" stop-opacity="0.03"/>
</linearGradient>
</defs>
</svg>
