<svg width="36" height="36" viewBox="0 0 36 36" fill="none" xmlns="http://www.w3.org/2000/svg">
<rect width="36" height="36" rx="18" fill="#23175F"/>
<path d="M13.3936 18.5232C12.97 18.9467 12.97 19.6355 13.3936 20.059C13.8171 20.4825 14.5059 20.4825 14.9294 20.059C15.7508 19.2376 16.8417 18.7841 18.0054 18.7841C19.1647 18.7841 20.2557 19.2376 21.0813 20.059C21.5049 20.4825 22.1936 20.4825 22.6172 20.059C23.1648 19.5114 22.8311 18.7328 22.6172 18.5232C21.3851 17.2911 19.7466 16.6151 18.0054 16.6151C16.2642 16.6151 14.6257 17.2911 13.3936 18.5232Z" fill="white"/>
<path d="M10.3176 15.4473C9.89412 15.8708 9.89412 16.5596 10.3176 16.9831C10.7412 17.4067 11.43 17.4067 11.8535 16.9831C15.246 13.5906 20.7648 13.5906 24.1531 16.9831C24.5766 17.4067 25.2654 17.4067 25.6889 16.9831C26.2664 16.4056 25.9028 15.6569 25.6889 15.4473C21.4536 11.2077 14.5573 11.2077 10.3176 15.4473Z" fill="white"/>
<ellipse cx="18.196" cy="22.1393" rx="1.59301" ry="1.59301" transform="rotate(-90 18.196 22.1393)" fill="white"/>
</svg>
